<?xml version="1.0" encoding="UTF-8"?><svg version="1.1" id="Layer_1" xmlns="http://www.w3.org/2000/svg" xmlns:xlink="http://www.w3.org/1999/xlink" x="0px" y="0px" width="800px" height="600px" viewBox="0 0 800 600" style="enable-background:new 0 0 800 600;" xml:space="preserve">
<path style="fill:#E0EBFE;" d="M24.072,489.185l4.449-12.138c1.603-0.079,3.183,0.096,4.715,0.611l-4.809,13.124
	c-0.269,0.736,0.109,1.551,0.844,1.822c0.736,0.269,1.551-0.109,1.822-0.844l4.719-12.879c1.429,0.895,2.658,2.076,3.665,3.475
	l-3.982,10.866c-0.269,0.736,0.109,1.551,0.844,1.822c0.736,0.27,1.551-0.109,1.822-0.844l3.128-8.535
	c1.796,4.445,1.901,10.075-0.125,15.607c-0.048,0.13-0.096,0.257-0.146,0.384c1.042,0.601,2.058,1.25,3.034,1.967
	c2.737,2.01,6.266,5.422,7.531,10.256l-1.373,0.359c-1.16-4.432-4.445-7.597-6.998-9.471c-0.88-0.646-1.799-1.238-2.746-1.789
	c-2.125,4.708-5.525,8.37-9.33,10.393l2.972-8.11c0.269-0.736-0.109-1.551-0.844-1.822c-0.736-0.269-1.551,0.109-1.822,0.844
	l-3.829,10.45c-1.671,0.413-3.366,0.505-5.023,0.23l4.45-12.143c0.269-0.736-0.109-1.551-0.844-1.822
	c-0.736-0.269-1.551,0.109-1.822,0.844l-4.511,12.309c-1.455-0.644-2.751-1.607-3.916-2.791l4.073-11.114
	c0.269-0.736-0.109-1.551-0.844-1.822c-0.736-0.269-1.551,0.109-1.822,0.844l-3.5,9.552c-1.131-1.607-2.119-3.414-3.002-5.284
	l2.197-5.997c0.269-0.736-0.109-1.551-0.844-1.822c-0.736-0.269-1.551,0.109-1.822,0.844l-1.17,3.193
	c-2.163-5.371-3.695-10.5-5.501-12.215c3.059-0.644,7.416-3.572,12.24-6.175l-1.515,4.134c-0.269,0.736,0.109,1.551,0.844,1.822
	c0.736,0.27,1.551-0.109,1.822-0.844l2.553-6.966c1.869-0.85,3.774-1.563,5.673-2.004l-3.92,10.699
	c-0.269,0.736,0.109,1.551,0.844,1.822C22.987,490.299,23.803,489.921,24.072,489.185z"/>
<path style="fill:#E0EBFE;" d="M709.257,258.094l-4.449-12.139c-1.603-0.079-3.183,0.096-4.715,0.611l4.809,13.124
	c0.269,0.736-0.109,1.551-0.844,1.822c-0.736,0.269-1.551-0.109-1.822-0.844l-4.719-12.879c-1.429,0.895-2.658,2.076-3.665,3.475
	l3.982,10.867c0.269,0.736-0.109,1.551-0.844,1.822c-0.736,0.269-1.551-0.109-1.822-0.844l-3.128-8.534
	c-1.796,4.445-1.901,10.075,0.125,15.607c0.048,0.13,0.096,0.257,0.146,0.384c-1.042,0.601-2.058,1.25-3.034,1.967
	c-2.737,2.01-6.266,5.422-7.531,10.256l1.373,0.359c1.16-4.432,4.445-7.597,6.998-9.471c0.88-0.646,1.799-1.238,2.746-1.789
	c2.125,4.708,5.525,8.37,9.33,10.393l-2.972-8.11c-0.269-0.736,0.109-1.551,0.844-1.822c0.736-0.269,1.551,0.109,1.822,0.844
	l3.829,10.45c1.671,0.413,3.366,0.505,5.023,0.23l-4.45-12.143c-0.269-0.736,0.109-1.551,0.844-1.822
	c0.736-0.269,1.551,0.109,1.822,0.844l4.511,12.309c1.455-0.644,2.751-1.607,3.916-2.791l-4.073-11.114
	c-0.269-0.736,0.109-1.551,0.844-1.822c0.736-0.269,1.551,0.109,1.822,0.844l3.5,9.552c1.131-1.607,2.119-3.414,3.002-5.284
	l-2.197-5.997c-0.269-0.736,0.109-1.551,0.844-1.822c0.736-0.269,1.551,0.109,1.822,0.844l1.17,3.193
	c2.163-5.371,3.695-10.5,5.501-12.215c-3.059-0.644-7.416-3.572-12.24-6.175l1.515,4.134c0.269,0.736-0.109,1.551-0.844,1.822
	c-0.736,0.269-1.551-0.109-1.822-0.844l-2.553-6.966c-1.869-0.85-3.774-1.563-5.673-2.004l3.92,10.699
	c0.269,0.736-0.109,1.551-0.844,1.822C710.342,259.207,709.526,258.83,709.257,258.094z"/>
<line style="fill:none;stroke:#BDD5FD;stroke-width:5;stroke-miterlimit:10;" x1="654.558" y1="359.609" x2="787.515" y2="544.087"/>
<line style="fill:none;stroke:#BDD5FD;stroke-width:5;stroke-miterlimit:10;" x1="618.31" y1="334.679" x2="769.234" y2="544.087"/>
<line style="fill:none;stroke:#BDD5FD;stroke-width:5;stroke-miterlimit:10;" x1="617.995" y1="359.609" x2="750.952" y2="544.087"/>
<rect x="351.72" y="516.944" style="fill:#BDD5FD;" width="75.156" height="30.467"/>
<path style="fill:#E6EFFE;" d="M736.768,453.821h-90.916v93.22h24.243v-49.756c0-11.669,9.547-21.216,21.216-21.216
	c11.669,0,21.216,9.547,21.216,21.216v49.756h24.243V453.821z"/>
<path style="fill:#FFFFFF;" d="M691.311,476.071c-11.669,0-21.216,9.547-21.216,21.216v49.756h42.431v-49.756
	C712.526,485.618,702.98,476.071,691.311,476.071z"/>
<rect x="81.176" y="437.167" style="fill:#FFFFFF;" width="79.774" height="110.245"/>
<g>
	<rect x="242.944" y="377.89" style="fill:#BDD5FD;" width="5.54" height="53.183"/>
</g>
<path style="fill:#D5E4FE;" d="M312.146,418.639h-23.288v23.878h6.209v-12.745c0-2.988,2.445-5.434,5.434-5.434
	c2.989,0,5.434,2.445,5.434,5.434v12.745h6.209v-23.878H312.146z"/>
<path style="fill:#FFFFFF;" d="M300.502,424.338c-2.988,0-5.434,2.445-5.434,5.434v12.745h10.869v-12.743
	C305.936,426.783,303.492,424.338,300.502,424.338z"/>
<polygon style="fill:#A1C3FC;" points="309.318,414.677 290.858,414.677 285.683,418.99 314.493,418.99 "/>
<path style="fill:#D5E4FE;" d="M320.464,449.073h-39.353v40.351h10.493v-21.537c0-5.05,4.133-9.183,9.183-9.183
	c5.052,0,9.183,4.132,9.183,9.183v21.537h10.494v-40.351H320.464z"/>
<path style="fill:#FFFFFF;" d="M300.788,458.703c-5.05,0-9.183,4.132-9.183,9.183v21.537h18.367v-21.537
	C309.971,462.836,305.839,458.703,300.788,458.703z"/>
<rect x="201.957" y="420.55" style="fill:#BDD5FD;" width="65.37" height="126.861"/>
<path style="fill:#F4F4F4;" d="M108.56,59.935c-0.024,0.617-0.047,1.234-0.047,1.857c0,25.642,20.788,46.43,46.43,46.43
	s46.43-20.788,46.43-46.43c0-0.623-0.022-1.24-0.047-1.857H108.56z"/>
<path style="fill:#E7EFFE;" d="M157.231,59.935c-0.018,0.448-0.034,0.896-0.034,1.35c0,18.628,15.101,33.73,33.73,33.73
	s33.73-15.101,33.73-33.73c0-0.452-0.017-0.901-0.034-1.35H157.231z"/>
<g>
	<path style="fill:#D3E3FE;" d="M639.773,12.674c-0.027,0.67-0.051,1.342-0.051,2.02c0,27.883,22.604,50.486,50.486,50.486
		c27.884,0,50.487-22.604,50.487-50.486c0-0.677-0.024-1.348-0.051-2.02C740.644,12.674,639.773,12.674,639.773,12.674z"/>
	<path style="fill:#F6F9FF;" d="M692.697,12.674c-0.019,0.488-0.037,0.975-0.037,1.467c0,20.256,16.421,36.677,36.677,36.677
		c20.256,0,36.677-16.421,36.677-36.677c0-0.492-0.018-0.98-0.038-1.467H692.697z"/>
	<path style="fill:#D3E3FE;" d="M732.904,12.674c-0.015,0.391-0.03,0.781-0.03,1.176c0,16.236,13.162,29.398,29.398,29.398
		S791.67,30.086,791.67,13.85c0-0.394-0.014-0.786-0.03-1.176H732.904z"/>
</g>
<g>
	<path style="fill:#C8DCF8;" d="M215.773,326.93h-18.537c1.077-0.34,2.154-0.624,3.288-0.793h11.905
		C213.561,326.363,214.638,326.647,215.773,326.93z M219.968,328.574h-26.926c-0.567,0.227-1.077,0.51-1.588,0.793h30.044
		C221.045,329.084,220.478,328.801,219.968,328.574z M223.879,331.011h-35.09c-0.397,0.284-0.737,0.51-1.134,0.793h37.074
		C224.445,331.522,224.162,331.238,223.879,331.011z M225.977,333.392h-40.306c-0.284,0.284-0.624,0.51-0.907,0.793h41.609
		C226.259,333.96,226.146,333.676,225.977,333.392z M227.11,335.83h-43.934c-0.227,0.284-0.453,0.51-0.737,0.793h44.896
		C227.28,336.34,227.167,336.114,227.11,335.83z M227.734,338.268h-46.597c-0.227,0.284-0.397,0.51-0.567,0.793h47.278
		C227.791,338.778,227.734,338.495,227.734,338.268z M228.017,340.649h-48.525c-0.17,0.284-0.34,0.51-0.453,0.793h49.093
		C228.074,341.215,228.074,340.932,228.017,340.649z M228.131,343.087h-49.999c-0.113,0.284-0.284,0.51-0.397,0.793h50.396
		C228.131,343.596,228.131,343.369,228.131,343.087z M227.676,345.807c0.057-0.113,0.057-0.17,0.113-0.284h-50.736
		c-0.113,0.284-0.227,0.51-0.284,0.793h50.565C227.45,346.147,227.563,345.978,227.676,345.807z M224.389,348.188
		c0.17-0.113,0.34-0.17,0.51-0.227H176.26c-0.057,0.284-0.113,0.51-0.227,0.793h47.391
		C223.709,348.528,224.049,348.358,224.389,348.188z M221.271,350.342h-45.577c-0.057,0.284-0.113,0.51-0.113,0.793h44.896
		C220.705,350.853,220.987,350.569,221.271,350.342z M219.06,352.723h-43.763c0,0.284-0.057,0.51-0.057,0.793h43.253
		C218.664,353.289,218.833,353.007,219.06,352.723z M217.53,355.161h-42.346c0,0.284,0,0.51,0,0.793h41.949
		C217.247,355.727,217.416,355.445,217.53,355.161z M216.51,357.599h-41.212c0,0.284,0.057,0.51,0.113,0.793h40.872
		C216.339,358.108,216.453,357.825,216.51,357.599z M215.886,359.979h-40.192c0.057,0.284,0.113,0.567,0.17,0.793h39.908
		C215.829,360.546,215.886,360.262,215.886,359.979z M215.659,362.416h-39.284c0.113,0.284,0.17,0.567,0.284,0.793h39.002
		C215.659,362.984,215.659,362.7,215.659,362.416z M177.848,365.648h38.094c-0.057-0.284-0.113-0.51-0.113-0.793h-38.378
		C177.565,365.081,177.735,365.365,177.848,365.648z M179.436,368.029h37.13c-0.057-0.284-0.17-0.51-0.227-0.793h-37.47
		C179.038,367.519,179.209,367.803,179.436,368.029z M181.59,370.466h35.373c0-0.284,0-0.51-0.057-0.793h-36.167
		C181.079,369.957,181.363,370.24,181.59,370.466z M184.594,372.734c0.113,0.056,0.17,0.113,0.284,0.17h31.348
		c0.17-0.227,0.34-0.51,0.453-0.793H183.63C183.97,372.28,184.254,372.564,184.594,372.734z M191.736,375.285h20.237
		c0.793-0.171,1.53-0.453,2.267-0.793h-25.623C189.639,374.832,190.659,375.114,191.736,375.285z"/>
</g>
<circle style="fill:#A1C3FC;" cx="81.901" cy="142.401" r="5.616"/>
<circle style="fill:#A1C3FC;" cx="600.55" cy="34.252" r="5.616"/>
<path style="fill:none;" d="M288.685,394.416l0.016,0.016c0.002-0.008,0.006-0.014,0.008-0.022L288.685,394.416z"/>
<path style="fill:#C8DCFD;" d="M306.216,408.389c1.007-0.623,1.914-1.387,2.691-2.271l-0.073,0.019l-3.64-3.64l4.986-1.276
	l1.009,1.009c0.338-0.956,0.561-1.965,0.644-3.015l-1.188,0.304l-3.64-3.64l4.352-1.115c-1.022-3.331-3.464-6.037-6.621-7.417
	l1.096,1.096l-4.986,1.276l-3.149-3.149c-0.584,0.113-1.148,0.275-1.698,0.47l3.121,3.121l-4.986,1.276l-2.071-2.071
	c-0.382,0.34-0.743,0.702-1.079,1.088l1.424,1.424l-2.937,0.752c-0.304,0.566-0.555,1.162-0.766,1.778l4.963-1.271l3.64,3.64
	l-4.986,1.276l-3.623-3.623c-0.189,0.557-0.338,1.132-0.443,1.724l2.341,2.341l-2.493,0.638c0.038,0.52,0.098,1.033,0.199,1.531
	l3.553-0.91l3.64,3.64l-4.986,1.276l-1.27-1.27c1.172,2.44,3.146,4.413,5.586,5.586l-3.056-3.056l4.986-1.276l3.64,3.64
	l-4.486,1.149c1.09,0.396,2.252,0.635,3.464,0.696l2.283-0.584l0.418,0.418c0.592-0.105,1.167-0.254,1.724-0.443l-0.417-0.417
	L306.216,408.389z M308.922,399.96l-4.986,1.276l-3.64-3.64l4.986-1.276L308.922,399.96z M307.096,389.703l3.64,3.64l-4.986,1.276
	l-3.64-3.64L307.096,389.703z M295.396,392.698l4.986-1.276l3.64,3.64l-4.986,1.276L295.396,392.698z M293.583,399.316l4.986-1.276
	l3.64,3.64l-4.986,1.276L293.583,399.316z M298.483,404.215l4.986-1.276l3.64,3.64l-4.986,1.276L298.483,404.215z"/>
<rect x="42.101" y="369.581" style="fill:#D5E4FE;" width="79.774" height="177.831"/>
<rect x="160.954" y="462.651" style="fill:#D5E4FE;" width="79.774" height="84.76"/>
<polygon style="fill:#428DFC;" points="206.828,436.837 127.054,436.837 160.954,463.016 240.728,463.016 "/>
<polygon style="fill:#428DFC;" points="394.446,499.993 314.672,499.993 348.571,517.122 428.346,517.122 "/>
<rect x="184.319" y="475.25" style="fill:#FFFFFF;" width="10.277" height="56.39"/>
<rect x="203.362" y="475.25" style="fill:#FFFFFF;" width="10.277" height="56.39"/>
<rect x="222.406" y="475.25" style="fill:#FFFFFF;" width="10.277" height="56.39"/>
<rect x="491.148" y="479.274" style="fill:#FFFFFF;" width="49.304" height="68.136"/>
<rect x="540.455" y="495.026" style="fill:#D5E4FE;" width="49.304" height="52.386"/>
<polygon style="fill:#428DFC;" points="568.807,479.072 519.503,479.072 540.455,495.821 589.759,495.821 "/>
<rect x="561.275" y="502.812" style="fill:#FFFFFF;" width="4.996" height="17.046"/>
<rect x="570.532" y="502.812" style="fill:#FFFFFF;" width="4.996" height="17.046"/>
<rect x="579.79" y="502.812" style="fill:#FFFFFF;" width="4.996" height="17.046"/>
<rect x="42.101" y="385.499" style="fill:#FFFFFF;" width="43.213" height="7.756"/>
<rect x="42.101" y="399.903" style="fill:#FFFFFF;" width="43.213" height="7.756"/>
<rect x="42.101" y="414.308" style="fill:#FFFFFF;" width="43.213" height="7.756"/>
<rect x="42.101" y="428.712" style="fill:#FFFFFF;" width="43.213" height="7.756"/>
<rect x="42.101" y="443.117" style="fill:#FFFFFF;" width="43.213" height="7.756"/>
<rect x="42.101" y="457.521" style="fill:#FFFFFF;" width="43.213" height="7.756"/>
<rect x="42.101" y="471.926" style="fill:#FFFFFF;" width="43.213" height="7.756"/>
<rect x="42.101" y="486.33" style="fill:#FFFFFF;" width="43.213" height="7.756"/>
<rect x="42.101" y="500.734" style="fill:#FFFFFF;" width="43.213" height="7.756"/>
<rect x="42.101" y="515.139" style="fill:#FFFFFF;" width="43.213" height="7.756"/>
<polygon style="fill:#D5E4FE;" points="57.613,375.527 87.53,535.084 111.907,535.084 111.907,376.635 "/>
<path style="fill:#D5E4FE;" d="M325.904,496.29h-49.858v51.121h13.294v-27.286c0-6.399,5.235-11.634,11.634-11.634
	s11.634,5.236,11.634,11.634v27.286h13.295C325.904,547.411,325.904,496.29,325.904,496.29z"/>
<path style="fill:#FFFFFF;" d="M300.975,508.491c-6.399,0-11.634,5.236-11.634,11.634v27.286h23.269v-27.286
	C312.61,513.726,307.374,508.491,300.975,508.491z"/>
<polygon style="fill:#E6EFFE;" points="735.474,454.665 647.147,454.665 627.923,438.506 754.699,438.506 "/>
<polygon style="fill:#D5E4FE;" points="240.728,465.051 160.954,547.411 240.728,547.411 "/>
<polygon style="fill:#D5E4FE;" points="324.939,499.585 278.406,547.411 324.939,547.411 "/>
<polygon style="fill:#D5E4FE;" points="319.03,455.264 286.87,488.316 319.03,488.316 "/>
<polygon style="fill:#D5E4FE;" points="311.642,421.284 290.983,442.517 311.642,442.517 "/>
<g>
	<rect x="298.241" y="348.195" style="fill:#BDD5FD;" width="3.324" height="36.935"/>
</g>
<polygon style="fill:none;" points="456.288,481.538 466.771,479.078 459.119,472.065 448.637,474.525 "/>
<path style="fill:#C8DCFD;" d="M432.684,523.103l-7.651-7.013l10.483-2.46l0.881,0.808v-4.177l-7.552-6.923l7.552-1.773v-3.049
	l-10.202,2.394l-7.651-7.013l10.483-2.46l7.37,6.755v-4.176l-3.742-3.429l3.742-0.878v-3.049l-6.39,1.499l-7.651-7.013l10.483-2.46
	l3.559,3.262v-7.146l-2.579,0.605l-7.651-7.013l10.23-2.401v-4.466l-6.42-5.884l6.42-1.507v-3.049l-9.067,2.127l-7.651-7.013
	l10.482-2.46l6.236,5.715v-4.176l-2.608-2.391l2.608-0.612v-3.048l-5.257,1.233l-7.651-7.013l10.483-2.46l2.424,2.223v-5.84
	l-1.446,0.339l-7.651-7.013l9.097-2.135v-5.74h-4.521l3.259,2.987l-10.483,2.46l-3.087-2.83l-2.278,2.089l1.737,1.592l-22.853,5.363
	v3.049l13.711-3.218l-1.457,1.335l6.788,6.222l-10.482,2.46l-2.889-2.648l-2.278,2.089l1.539,1.411l-4.932,1.157v3.049l7.579-1.778
	l7.651,7.013l-10.483,2.46l-4.748-4.352v4.176l1.12,1.027l-1.12,0.263v3.049l3.768-0.884l7.651,7.013l-10.483,2.46l-0.937-0.859
	v4.177l7.609,6.974l-7.609,1.785v3.049l10.257-2.407l7.651,7.013l-10.483,2.46l-7.425-6.806v4.176l3.797,3.48l-3.797,0.891v3.049
	l6.445-1.512l7.651,7.013l-10.483,2.46l-3.614-3.313v7.21l2.635-0.618l7.651,7.013l-10.286,2.413v4.402l6.475,5.935l-6.475,1.519
	v3.049l9.124-2.141l7.651,7.013l-10.483,2.46l-6.291-5.767v4.176l2.664,2.442l-2.664,0.625v3.049l5.312-1.247l7.651,7.013
	l-10.482,2.46l-2.481-2.274v5.905l1.501-0.352l1.845,1.691h4.556l-2.773-2.542l10.483-2.46l3.087,2.829l2.278-2.089l-1.737-1.592
	l18.986-4.455v-3.049l-9.845,2.31l1.457-1.336l-6.788-6.222l10.483-2.46l2.889,2.647l1.804-1.653v-0.87l-1.065-0.975l1.065-0.249
	v-3.049L432.684,523.103z M432.867,511.203l-10.483,2.46l-7.651-7.013l10.483-2.46L432.867,511.203z M434,463.509l-10.482,2.46
	l-7.651-7.013l10.483-2.46L434,463.509z M413.189,424.013l10.483-2.46l7.651,7.013l-10.483,2.46L413.189,424.013z M409.379,436.764
	l10.483-2.46l7.651,7.013l-10.483,2.46L409.379,436.764z M405.568,449.516l10.483-2.46l7.651,7.013l-10.483,2.46L405.568,449.516z
	 M401.756,462.267l10.483-2.46l7.651,7.013l-10.483,2.46L401.756,462.267z M412.056,471.707l10.483-2.46l7.651,7.013l-10.483,2.46
	L412.056,471.707z M408.245,484.459l10.483-2.46l7.651,7.013l-10.483,2.46L408.245,484.459z M404.433,497.21l10.483-2.46
	l7.652,7.013l-10.483,2.46L404.433,497.21z M400.623,509.962l10.483-2.46l7.651,7.013l-10.483,2.46L400.623,509.962z
	 M425.246,536.706l-10.483,2.46l-7.651-7.013l10.483-2.46L425.246,536.706z M418.574,526.414l-7.651-7.013l10.483-2.46l7.651,7.013
	L418.574,526.414z"/>
<g>
	<rect x="597.25" y="402.82" style="fill:#D5E4FE;" width="64.863" height="144.591"/>
	<rect x="626.978" y="415.763" style="fill:#FFFFFF;" width="35.136" height="6.307"/>
	<rect x="626.978" y="427.475" style="fill:#FFFFFF;" width="35.136" height="6.307"/>
	<rect x="626.978" y="439.188" style="fill:#FFFFFF;" width="35.136" height="6.307"/>
	<rect x="626.978" y="450.9" style="fill:#FFFFFF;" width="35.136" height="6.307"/>
	<rect x="626.978" y="462.611" style="fill:#FFFFFF;" width="35.136" height="6.307"/>
	<rect x="626.978" y="474.323" style="fill:#FFFFFF;" width="35.136" height="6.307"/>
	<rect x="626.978" y="486.035" style="fill:#FFFFFF;" width="35.136" height="6.307"/>
	<rect x="626.978" y="497.747" style="fill:#FFFFFF;" width="35.136" height="6.307"/>
	<rect x="626.978" y="509.459" style="fill:#FFFFFF;" width="35.136" height="6.307"/>
	<rect x="626.978" y="521.171" style="fill:#FFFFFF;" width="35.136" height="6.307"/>
	<polygon style="fill:#D5E4FE;" points="649.501,407.655 625.176,537.388 605.356,537.388 605.356,408.556 	"/>
</g>
<path style="fill:#89B3F4;" d="M518.458,508.195c-6.387,0-11.612,5.225-11.612,11.612v27.234h23.224v-27.234
	C530.07,513.42,524.845,508.195,518.458,508.195z"/>
<g>
	<rect x="449.589" y="420.55" style="fill:#BDD5FD;" width="65.37" height="126.861"/>
	<circle style="fill:#FFFFFF;" cx="460.385" cy="436.336" r="8.587"/>
	<circle style="fill:#FFFFFF;" cx="483.011" cy="436.336" r="8.587"/>
	<circle style="fill:#FFFFFF;" cx="505.638" cy="436.336" r="8.587"/>
	<rect x="465.952" y="453.089" style="fill:#FFFFFF;" width="4.432" height="25.854"/>
	<rect x="475.554" y="453.089" style="fill:#FFFFFF;" width="4.432" height="25.854"/>
	<rect x="485.157" y="453.089" style="fill:#FFFFFF;" width="4.432" height="25.854"/>
	<rect x="494.76" y="453.089" style="fill:#FFFFFF;" width="4.432" height="25.854"/>
	<rect x="504.363" y="453.089" style="fill:#FFFFFF;" width="4.432" height="25.854"/>
	<rect x="454.871" y="504.059" style="fill:#FFFFFF;" width="4.432" height="25.854"/>
	<rect x="464.473" y="504.059" style="fill:#FFFFFF;" width="4.432" height="25.854"/>
	<rect x="474.077" y="504.059" style="fill:#FFFFFF;" width="4.432" height="25.854"/>
	<rect x="483.68" y="504.059" style="fill:#FFFFFF;" width="4.432" height="25.854"/>
	<rect x="493.282" y="504.059" style="fill:#FFFFFF;" width="4.432" height="25.854"/>
	<polygon style="fill:#BDD5FD;" points="514.96,449.359 449.589,502.351 514.96,502.351 	"/>
	<polygon style="fill:#BDD5FD;" points="449.589,493.681 514.96,546.672 449.589,546.672 	"/>
</g>
<polygon style="fill:#A1C3FC;" points="315.684,442.378 284.491,442.378 275.745,449.666 324.43,449.666 "/>
<polygon style="fill:#A1C3FC;" points="319.847,487.807 280.328,487.807 269.248,497.041 330.928,497.041 "/>
</svg>