<?xml version="1.0" encoding="UTF-8"?><svg version="1.1" id="Layer_1" xmlns="http://www.w3.org/2000/svg" xmlns:xlink="http://www.w3.org/1999/xlink" x="0px" y="0px" width="635.203px" height="263.51px" viewBox="0 0 635.203 263.51" enable-background="new 0 0 635.203 263.51" xml:space="preserve">
<g>
	<g>
		<polyline fill="#FFFFFF" points="456.801,263.01 456.801,134.13 453.741,134.13 448.641,134.13 448.641,89.26 368.081,89.26 
			368.081,134.13 359.931,134.13 359.931,159.58 359.931,263.01 376.241,263.01 453.741,263.01 		"/>
		<path fill="#1D2445" d="M456.801,263.51c-0.276,0-0.5-0.224-0.5-0.5V134.63h-7.66c-0.276,0-0.5-0.224-0.5-0.5V89.76h-79.56v44.37
			c0,0.276-0.224,0.5-0.5,0.5h-7.65v127.88h93.31c0.276,0,0.5,0.224,0.5,0.5s-0.224,0.5-0.5,0.5h-93.81c-0.276,0-0.5-0.224-0.5-0.5
			V134.13c0-0.276,0.224-0.5,0.5-0.5h7.65V89.26c0-0.276,0.224-0.5,0.5-0.5h80.56c0.276,0,0.5,0.224,0.5,0.5v44.37h7.66
			c0.276,0,0.5,0.224,0.5,0.5v128.88C457.301,263.286,457.078,263.51,456.801,263.51z"/>
	</g>
	<g>
		<polyline fill="#FFFFFF" points="453.741,263.01 453.741,134.13 453.741,127.97 459.041,127.97 474.951,76.98 477.601,76.98 
			480.401,43.37 482.901,76.98 485.551,76.98 501.461,127.97 506.761,127.97 506.761,155.48 506.761,263.01 500.651,263.01 
			456.801,263.01 		"/>
		<path fill="#1D2445" d="M506.761,263.51h-49.96c-0.276,0-0.5-0.224-0.5-0.5s0.224-0.5,0.5-0.5h49.46V128.47h-4.8
			c-0.219,0-0.412-0.143-0.478-0.352l-15.801-50.639h-2.282c-0.262,0-0.479-0.202-0.499-0.463l-2.029-27.285l-2.273,27.29
			c-0.021,0.259-0.238,0.458-0.498,0.458h-2.281l-15.801,50.639c-0.065,0.209-0.259,0.352-0.478,0.352h-4.801v134.54
			c0,0.276-0.224,0.5-0.5,0.5s-0.5-0.224-0.5-0.5V127.97c0-0.276,0.224-0.5,0.5-0.5h4.933l15.801-50.639
			c0.065-0.209,0.259-0.352,0.478-0.352h2.189l2.762-33.151c0.021-0.259,0.238-0.458,0.498-0.458c0.001,0,0.001,0,0.002,0
			c0.261,0.001,0.478,0.203,0.497,0.463l2.465,33.146h2.187c0.219,0,0.412,0.143,0.478,0.352l15.801,50.639h4.932
			c0.276,0,0.5,0.224,0.5,0.5v135.04C507.261,263.286,507.037,263.51,506.761,263.51z"/>
	</g>
	<g>
		<polygon fill="#FFFFFF" points="241.641,67.8 241.641,263.01 132.531,263.01 132.531,42.31 205.951,42.31 205.951,67.8 		"/>
		<path fill="#1D2445" d="M241.641,263.51h-109.11c-0.276,0-0.5-0.224-0.5-0.5V42.31c0-0.276,0.224-0.5,0.5-0.5h73.42
			c0.276,0,0.5,0.224,0.5,0.5V67.3h35.19c0.276,0,0.5,0.224,0.5,0.5v195.21C242.141,263.286,241.917,263.51,241.641,263.51z
			 M133.031,262.51h108.11V68.3h-35.19c-0.276,0-0.5-0.224-0.5-0.5V42.81h-72.42V262.51z"/>
	</g>
	<g>
		<polygon fill="#FFFFFF" points="144.771,99.41 144.771,263.01 37.701,263.01 37.701,188.13 61.151,188.13 61.151,156.52 
			132.531,107.77 		"/>
		<path fill="#1D2445" d="M144.771,263.51H37.701c-0.276,0-0.5-0.224-0.5-0.5v-74.88c0-0.276,0.224-0.5,0.5-0.5h22.95v-31.11
			c0-0.165,0.082-0.319,0.218-0.413l83.62-57.11c0.154-0.104,0.353-0.113,0.516-0.029c0.164,0.087,0.267,0.257,0.267,0.442V263.01
			C145.271,263.286,145.047,263.51,144.771,263.51z M38.201,262.51h106.07V100.356l-82.62,56.427v31.347c0,0.276-0.224,0.5-0.5,0.5
			h-22.95V262.51z"/>
	</g>
	<g>
		<polygon fill="#FFFFFF" points="376.241,159.58 376.241,263.01 270.191,263.01 270.191,159.58 286.511,159.58 286.511,112.67 
			297.721,112.67 297.721,82.08 312.001,82.08 323.221,0.5 333.411,82.08 348.711,82.08 348.711,112.67 359.931,112.67 
			359.931,159.58 		"/>
		<path fill="#1D2445" d="M376.241,263.51h-106.05c-0.276,0-0.5-0.224-0.5-0.5V159.579c0-0.276,0.224-0.5,0.5-0.5h15.82V112.67
			c0-0.276,0.224-0.5,0.5-0.5h10.71V82.079c0-0.276,0.224-0.5,0.5-0.5h13.844l11.161-81.147C322.76,0.185,322.972,0,323.221,0
			c0.001,0,0.002,0,0.003,0c0.251,0.002,0.462,0.189,0.493,0.438l10.135,81.141h14.859c0.276,0,0.5,0.224,0.5,0.5v30.091h10.72
			c0.276,0,0.5,0.224,0.5,0.5v46.409h15.81c0.276,0,0.5,0.224,0.5,0.5V263.01C376.741,263.286,376.517,263.51,376.241,263.51z
			 M270.691,262.51h105.05V160.079h-15.81c-0.276,0-0.5-0.224-0.5-0.5V113.17h-10.72c-0.276,0-0.5-0.224-0.5-0.5V82.579h-14.8
			c-0.252,0-0.465-0.188-0.496-0.438l-9.718-77.798l-10.701,77.805c-0.034,0.247-0.245,0.432-0.495,0.432h-13.78v30.091
			c0,0.276-0.224,0.5-0.5,0.5h-10.71v46.409c0,0.276-0.224,0.5-0.5,0.5h-15.82V262.51z"/>
	</g>
	<g>
		<rect x="196.771" y="104.51" fill="#FFFFFF" width="80.56" height="158.5"/>
		<path fill="#1D2445" d="M277.331,263.51h-80.56c-0.276,0-0.5-0.224-0.5-0.5v-158.5c0-0.276,0.224-0.5,0.5-0.5h80.56
			c0.276,0,0.5,0.224,0.5,0.5v158.5C277.831,263.286,277.607,263.51,277.331,263.51z M197.271,262.51h79.56v-157.5h-79.56V262.51z"/>
	</g>
	<g>
		<g>
			<rect x="95.971" y="166.72" fill="#FFFFFF" width="9.17" height="96.29"/>
			<path fill="#1D2445" d="M105.141,263.51h-9.17c-0.276,0-0.5-0.224-0.5-0.5v-96.29c0-0.276,0.224-0.5,0.5-0.5h9.17
				c0.276,0,0.5,0.224,0.5,0.5v96.29C105.641,263.286,105.417,263.51,105.141,263.51z M96.471,262.51h8.17v-95.29h-8.17V262.51z"/>
		</g>
		<g>
			<rect x="75.571" y="166.72" fill="#FFFFFF" width="9.18" height="96.29"/>
			<path fill="#1D2445" d="M84.751,263.51h-9.18c-0.276,0-0.5-0.224-0.5-0.5v-96.29c0-0.276,0.224-0.5,0.5-0.5h9.18
				c0.276,0,0.5,0.224,0.5,0.5v96.29C85.251,263.286,85.028,263.51,84.751,263.51z M76.071,262.51h8.18v-95.29h-8.18V262.51z"/>
		</g>
		<g>
			<rect x="116.361" y="166.72" fill="#FFFFFF" width="9.18" height="96.29"/>
			<path fill="#1D2445" d="M125.541,263.51h-9.18c-0.276,0-0.5-0.224-0.5-0.5v-96.29c0-0.276,0.224-0.5,0.5-0.5h9.18
				c0.276,0,0.5,0.224,0.5,0.5v96.29C126.041,263.286,125.818,263.51,125.541,263.51z M116.861,262.51h8.18v-95.29h-8.18V262.51z"/>
		</g>
	</g>
	<g>
		<polyline fill="#FFFFFF" points="590.381,263.01 599.561,263.01 599.561,155.48 585.281,155.48 585.281,138.14 549.711,123.91 
			514.921,138.14 514.921,155.48 506.761,155.48 500.651,155.48 500.651,263.01 506.761,263.01 510.841,263.01 		"/>
		<path fill="#1D2445" d="M599.561,263.51h-9.18c-0.276,0-0.5-0.224-0.5-0.5s0.224-0.5,0.5-0.5h8.68v-106.53h-13.78
			c-0.276,0-0.5-0.224-0.5-0.5v-17.001l-35.067-14.029l-34.292,14.026v17.004c0,0.276-0.224,0.5-0.5,0.5h-13.771v106.53h9.69
			c0.276,0,0.5,0.224,0.5,0.5s-0.224,0.5-0.5,0.5h-10.19c-0.276,0-0.5-0.224-0.5-0.5v-107.53c0-0.276,0.224-0.5,0.5-0.5h13.771
			v-16.84c0-0.203,0.123-0.386,0.311-0.463l34.79-14.229c0.12-0.049,0.256-0.05,0.375-0.001l35.569,14.229
			c0.19,0.075,0.314,0.26,0.314,0.464v16.84h13.78c0.276,0,0.5,0.224,0.5,0.5v107.53C600.061,263.286,599.837,263.51,599.561,263.51
			z"/>
	</g>
	<g>
		<g>
			<rect x="510.845" y="167.653" fill="#FFFFFF" width="79.538" height="5.099"/>
			<path fill="#1D2445" d="M590.383,173.252h-79.538c-0.276,0-0.5-0.224-0.5-0.5v-5.099c0-0.276,0.224-0.5,0.5-0.5h79.538
				c0.276,0,0.5,0.224,0.5,0.5v5.099C590.883,173.028,590.66,173.252,590.383,173.252z M511.345,172.252h78.538v-4.099h-78.538
				V172.252z"/>
		</g>
		<g>
			<rect x="510.845" y="177.851" fill="#FFFFFF" width="79.538" height="5.099"/>
			<path fill="#1D2445" d="M590.383,183.449h-79.538c-0.276,0-0.5-0.224-0.5-0.5v-5.099c0-0.276,0.224-0.5,0.5-0.5h79.538
				c0.276,0,0.5,0.224,0.5,0.5v5.099C590.883,183.226,590.66,183.449,590.383,183.449z M511.345,182.449h78.538v-4.099h-78.538
				V182.449z"/>
		</g>
		<g>
			<rect x="510.845" y="188.048" fill="#FFFFFF" width="79.538" height="5.099"/>
			<path fill="#1D2445" d="M590.383,193.646h-79.538c-0.276,0-0.5-0.224-0.5-0.5v-5.099c0-0.276,0.224-0.5,0.5-0.5h79.538
				c0.276,0,0.5,0.224,0.5,0.5v5.099C590.883,193.423,590.66,193.646,590.383,193.646z M511.345,192.646h78.538v-4.099h-78.538
				V192.646z"/>
		</g>
		<g>
			<rect x="510.845" y="198.245" fill="#FFFFFF" width="79.538" height="5.099"/>
			<path fill="#1D2445" d="M590.383,203.844h-79.538c-0.276,0-0.5-0.224-0.5-0.5v-5.099c0-0.276,0.224-0.5,0.5-0.5h79.538
				c0.276,0,0.5,0.224,0.5,0.5v5.099C590.883,203.62,590.66,203.844,590.383,203.844z M511.345,202.844h78.538v-4.099h-78.538
				V202.844z"/>
		</g>
		<g>
			<rect x="510.845" y="208.441" fill="#FFFFFF" width="79.538" height="5.099"/>
			<path fill="#1D2445" d="M590.383,214.04h-79.538c-0.276,0-0.5-0.224-0.5-0.5v-5.099c0-0.276,0.224-0.5,0.5-0.5h79.538
				c0.276,0,0.5,0.224,0.5,0.5v5.099C590.883,213.816,590.66,214.04,590.383,214.04z M511.345,213.04h78.538v-4.099h-78.538V213.04z
				"/>
		</g>
		<g>
			<rect x="510.845" y="218.638" fill="#FFFFFF" width="79.538" height="5.099"/>
			<path fill="#1D2445" d="M590.383,224.237h-79.538c-0.276,0-0.5-0.224-0.5-0.5v-5.099c0-0.276,0.224-0.5,0.5-0.5h79.538
				c0.276,0,0.5,0.224,0.5,0.5v5.099C590.883,224.014,590.66,224.237,590.383,224.237z M511.345,223.237h78.538v-4.099h-78.538
				V223.237z"/>
		</g>
		<g>
			<rect x="510.845" y="228.835" fill="#FFFFFF" width="79.538" height="5.099"/>
			<path fill="#1D2445" d="M590.383,234.434h-79.538c-0.276,0-0.5-0.224-0.5-0.5v-5.099c0-0.276,0.224-0.5,0.5-0.5h79.538
				c0.276,0,0.5,0.224,0.5,0.5v5.099C590.883,234.21,590.66,234.434,590.383,234.434z M511.345,233.434h78.538v-4.099h-78.538
				V233.434z"/>
		</g>
		<g>
			<rect x="510.845" y="239.033" fill="#FFFFFF" width="79.538" height="5.099"/>
			<path fill="#1D2445" d="M590.383,244.631h-79.538c-0.276,0-0.5-0.224-0.5-0.5v-5.099c0-0.276,0.224-0.5,0.5-0.5h79.538
				c0.276,0,0.5,0.224,0.5,0.5v5.099C590.883,244.407,590.66,244.631,590.383,244.631z M511.345,243.631h78.538v-4.099h-78.538
				V243.631z"/>
		</g>
		<g>
			<rect x="510.845" y="249.23" fill="#FFFFFF" width="79.538" height="5.099"/>
			<path fill="#1D2445" d="M590.383,254.828h-79.538c-0.276,0-0.5-0.224-0.5-0.5v-5.099c0-0.276,0.224-0.5,0.5-0.5h79.538
				c0.276,0,0.5,0.224,0.5,0.5v5.099C590.883,254.604,590.66,254.828,590.383,254.828z M511.345,253.828h78.538v-4.099h-78.538
				V253.828z"/>
		</g>
		<g>
			<polyline fill="#FFFFFF" points="590.381,263.01 590.381,259.43 510.841,259.43 510.841,263.01 			"/>
			<path fill="#1D2445" d="M590.381,263.51c-0.276,0-0.5-0.224-0.5-0.5v-3.08h-78.54v3.08c0,0.276-0.224,0.5-0.5,0.5
				s-0.5-0.224-0.5-0.5v-3.58c0-0.276,0.224-0.5,0.5-0.5h79.54c0.276,0,0.5,0.224,0.5,0.5v3.58
				C590.881,263.286,590.658,263.51,590.381,263.51z"/>
		</g>
	</g>
</g>
<g>
	<line fill="#FFFFFF" x1="456.801" y1="263.01" x2="453.741" y2="263.01"/>
	<rect x="453.741" y="262.51" fill="#1D2445" width="3.061" height="1"/>
</g>
<g>
	<line fill="#FFFFFF" x1="0" y1="263.01" x2="635.203" y2="263.01"/>
	<rect x="0" y="262.51" fill="#1D2445" width="635.203" height="1"/>
</g>
</svg>